<svg xmlns="http://www.w3.org/2000/svg" viewBox="0 0 32 32" fill="none">
  <defs>
    <linearGradient id="g" x1="0%" y1="0%" x2="100%" y2="100%">
      <stop offset="0%" stop-color="#6366f1"/>
      <stop offset="100%" stop-color="#8b5cf6"/>
    </linearGradient>
  </defs>
  <polygon points="16,2 28,9 28,23 16,30 4,23 4,9" fill="url(#g)" opacity="0.12" stroke="url(#g)" stroke-width="1.5"/>
  <path d="M16 7 C16 7, 22 10, 22 15 C22 18, 20 20, 18 20 C16 20, 15 18.5, 15 17 C15 15.5, 16 14.5, 17.5 14.5" stroke="url(#g)" stroke-width="2.2" stroke-linecap="round" fill="none"/>
  <path d="M13 9 C13 9, 19 12, 19 17 C19 20, 17 22, 15 22 C13 22, 12 20.5, 12 19 C12 17.5, 13 16.5, 14.5 16.5" stroke="url(#g)" stroke-width="2.2" stroke-linecap="round" fill="none" opacity="0.65"/>
  <path d="M10 11 C10 11, 16 14, 16 19 C16 22, 14 24, 12 24 C10 24, 9 22.5, 9 21" stroke="url(#g)" stroke-width="2.2" stroke-linecap="round" fill="none" opacity="0.35"/>
</svg>
